<svg id="visual" viewBox="0 0 900 600" width="900" height="600" xmlns="http://www.w3.org/2000/svg" xmlns:xlink="http://www.w3.org/1999/xlink" version="1.1"><rect x="0" y="0" width="900" height="600" fill="#001220"></rect><path d="M0 373L21.5 369.2C43 365.3 86 357.7 128.8 350.8C171.7 344 214.3 338 257.2 332.7C300 327.3 343 322.7 385.8 332.7C428.7 342.7 471.3 367.3 514.2 369.7C557 372 600 352 642.8 352.8C685.7 353.7 728.3 375.3 771.2 377.8C814 380.3 857 363.7 878.5 355.3L900 347L900 601L878.5 601C857 601 814 601 771.2 601C728.3 601 685.7 601 642.8 601C600 601 557 601 514.2 601C471.3 601 428.7 601 385.8 601C343 601 300 601 257.2 601C214.3 601 171.7 601 128.8 601C86 601 43 601 21.5 601L0 601Z" fill="#4facf7"></path><path d="M0 418L21.5 417.5C43 417 86 416 128.8 407.3C171.7 398.7 214.3 382.3 257.2 375.7C300 369 343 372 385.8 377C428.7 382 471.3 389 514.2 385.8C557 382.7 600 369.3 642.8 366.8C685.7 364.3 728.3 372.7 771.2 373C814 373.3 857 365.7 878.5 361.8L900 358L900 601L878.5 601C857 601 814 601 771.2 601C728.3 601 685.7 601 642.8 601C600 601 557 601 514.2 601C471.3 601 428.7 601 385.8 601C343 601 300 601 257.2 601C214.3 601 171.7 601 128.8 601C86 601 43 601 21.5 601L0 601Z" fill="#2b9dfc"></path><path d="M0 479L21.5 469C43 459 86 439 128.8 437.5C171.7 436 214.3 453 257.2 459C300 465 343 460 385.8 453.7C428.7 447.3 471.3 439.7 514.2 445C557 450.3 600 468.7 642.8 465C685.7 461.3 728.3 435.7 771.2 426C814 416.3 857 422.7 878.5 425.8L900 429L900 601L878.5 601C857 601 814 601 771.2 601C728.3 601 685.7 601 642.8 601C600 601 557 601 514.2 601C471.3 601 428.7 601 385.8 601C343 601 300 601 257.2 601C214.3 601 171.7 601 128.8 601C86 601 43 601 21.5 601L0 601Z" fill="#008cff"></path><path d="M0 470L21.5 471C43 472 86 474 128.8 484.2C171.7 494.3 214.3 512.7 257.2 517.7C300 522.7 343 514.3 385.8 502.2C428.7 490 471.3 474 514.2 476.7C557 479.3 600 500.7 642.8 510.2C685.7 519.7 728.3 517.3 771.2 510.8C814 504.3 857 493.7 878.5 488.3L900 483L900 601L878.5 601C857 601 814 601 771.2 601C728.3 601 685.7 601 642.8 601C600 601 557 601 514.2 601C471.3 601 428.7 601 385.8 601C343 601 300 601 257.2 601C214.3 601 171.7 601 128.8 601C86 601 43 601 21.5 601L0 601Z" fill="#007aff"></path><path d="M0 562L21.5 554.7C43 547.3 86 532.7 128.8 527.7C171.7 522.7 214.3 527.3 257.2 525.8C300 524.3 343 516.7 385.8 515.7C428.7 514.7 471.3 520.3 514.2 524.3C557 528.3 600 530.7 642.8 529.2C685.7 527.7 728.3 522.3 771.2 519.2C814 516 857 515 878.5 514.5L900 514L900 601L878.5 601C857 601 814 601 771.2 601C728.3 601 685.7 601 642.8 601C600 601 557 601 514.2 601C471.3 601 428.7 601 385.8 601C343 601 300 601 257.2 601C214.3 601 171.7 601 128.8 601C86 601 43 601 21.5 601L0 601Z" fill="#0066ff"></path></svg>