<svg id="Layer_1" data-name="Layer 1" xmlns="http://www.w3.org/2000/svg" viewBox="0 0 988.57 292.83"><defs><style>.cls-1,.cls-2,.cls-3,.cls-4,.cls-5{fill:#fff;stroke:#fff;}.cls-1,.cls-2,.cls-3,.cls-5{stroke-miterlimit:10;}.cls-1{stroke-width:0.71px;}.cls-2{stroke-width:0.26px;}.cls-3{stroke-width:2.04px;}.cls-4{stroke-linecap:square;stroke-miterlimit:14;stroke-width:2.04px;}</style></defs><path class="cls-1" d="M238.32,463.42l22.21-16.5s1.13,77.81-41.39,131.23C219.14,578.15,253.78,528,238.32,463.42Z" transform="translate(-31.93 -352.15)"/><path class="cls-2" d="M165.75,466.68a121.1,121.1,0,0,0-3.92,35.14s7.66,7.09,38.34,13.56S232,537.56,232,537.56s-4.87,23.23-16.67,40.59c0,0,12.78-50.22-15.17-62.77S165.75,466.68,165.75,466.68Z" transform="translate(-31.93 -352.15)"/><path class="cls-1" d="M162.46,463.42l-22.22-16.5s-1.12,77.81,41.39,131.23C181.63,578.15,147,528,162.46,463.42Z" transform="translate(-31.93 -352.15)"/><path class="cls-2" d="M207.18,443a7,7,0,0,1-6.57,6.95h-.44a7,7,0,0,1,0-13.9h.44A7,7,0,0,1,207.18,443Z" transform="translate(-31.93 -352.15)"/><path class="cls-2" d="M200.61,436.08h0Z" transform="translate(-31.93 -352.15)"/><path class="cls-2" d="M200.39,450h0Z" transform="translate(-31.93 -352.15)"/><path class="cls-2" d="M200.17,450h0Z" transform="translate(-31.93 -352.15)"/><path class="cls-2" d="M200.39,436.08h0Z" transform="translate(-31.93 -352.15)"/><polygon class="cls-2" points="168.47 205.22 168.24 207.02 168.24 203.43 168.47 205.22"/><polygon class="cls-2" points="228.19 86.92 178.74 122.25 168.69 203.43 168.47 205.22 168.24 203.43 158.19 122.25 108.74 86.92 168.47 106.23 228.19 86.92"/><polygon class="cls-2" points="168.69 203.43 168.69 207.02 168.47 205.22 168.69 203.43"/><path class="cls-3" d="M286.64,568.62a76.8,76.8,0,0,1-135.33-22c-2.79-6.48-5.18-12.81-7.24-19l-32.8,35.1a118.41,118.41,0,0,0,213.4,24.6Z" transform="translate(-31.93 -352.15)"/><path class="cls-4" d="M142.8,519.7,39,631.19l64.17-99.62s1.58-54.05,31.25-83.43A254.69,254.69,0,0,0,142.8,519.7Z" transform="translate(-31.93 -352.15)"/><path class="cls-3" d="M326.21,465.22,288,479a77.07,77.07,0,0,0-20-20.08l.09-.4c4.27-19-.75-32-.75-32l-32.18,11h0l-8.18,3.68,83.17-82.71-34.87,59.38A118.8,118.8,0,0,1,326.21,465.22Z" transform="translate(-31.93 -352.15)"/><path class="cls-5" d="M353.48,501.44V431.16H372.4v70.28Z" transform="translate(-31.93 -352.15)"/><path class="cls-5" d="M410.25,488.39h44.24v13.05H391.56V431.16H453v13H410.25Zm-1.39-29H448v12.75H408.86Z" transform="translate(-31.93 -352.15)"/><path class="cls-5" d="M488.16,488.39h44.23v13.05H469.47V431.16h61.41v13H488.16Zm-1.39-29h39.12v12.75H486.77Z" transform="translate(-31.93 -352.15)"/><path class="cls-5" d="M566.06,488.39H610.3v13.05H547.37V431.16h61.42v13H566.06Zm-1.39-29H603.8v12.75H564.67Z" transform="translate(-31.93 -352.15)"/><path class="cls-5" d="M669.75,500.46a43.41,43.41,0,0,1-14.32-2.36A29.29,29.29,0,0,1,644.67,492l3.46-7.53a30.08,30.08,0,0,0,9.55,5.6,33.49,33.49,0,0,0,12.07,2.22,26.56,26.56,0,0,0,9.27-1.35,11,11,0,0,0,5.24-3.72,8.94,8.94,0,0,0,1.69-5.35,7.43,7.43,0,0,0-2.2-5.59,16.21,16.21,0,0,0-5.71-3.43,63.35,63.35,0,0,0-7.72-2.26c-2.81-.64-5.64-1.4-8.47-2.27a37.2,37.2,0,0,1-7.77-3.33,16.15,16.15,0,0,1-5.67-5.44,16.43,16.43,0,0,1-2.15-8.83,18.09,18.09,0,0,1,2.67-9.59,18.57,18.57,0,0,1,8.24-7q5.57-2.65,14.18-2.66A42.5,42.5,0,0,1,682.67,433a31.13,31.13,0,0,1,9.74,4.43l-3.09,7.72a29.74,29.74,0,0,0-8.89-4.2,33.75,33.75,0,0,0-9.08-1.3,24.18,24.18,0,0,0-9.08,1.45,11,11,0,0,0-5.2,3.86,9.38,9.38,0,0,0-1.64,5.4,7.59,7.59,0,0,0,2.2,5.69,15.7,15.7,0,0,0,5.71,3.37,75.61,75.61,0,0,0,7.73,2.27c2.8.67,5.63,1.43,8.47,2.26a35.8,35.8,0,0,1,7.77,3.28,16.27,16.27,0,0,1,5.66,5.4,15.86,15.86,0,0,1,2.15,8.68,17.7,17.7,0,0,1-2.71,9.5,18.88,18.88,0,0,1-8.38,7C680.25,499.58,675.5,500.46,669.75,500.46Z" transform="translate(-31.93 -352.15)"/><path class="cls-5" d="M708.79,499.69v-67.5h29.39q11.33,0,17.41,4.67a15.25,15.25,0,0,1,6.09,12.78,17,17,0,0,1-2.39,9.26,15.9,15.9,0,0,1-6.41,5.78,19.14,19.14,0,0,1-8.71,2l1.69-2.89a23.07,23.07,0,0,1,9.92,2,16.14,16.14,0,0,1,6.83,5.93,17.47,17.47,0,0,1,2.53,9.69q0,8.69-6.32,13.46t-18.77,4.77Zm9.36-7.81h21.53q7.77,0,11.89-2.7t4.12-8.49q0-5.88-4.12-8.58t-11.89-2.7H717.31V461.6h20q7.11,0,11-2.7t3.93-8.1q0-5.4-3.93-8.1t-11-2.7H718.15Z" transform="translate(-31.93 -352.15)"/><path class="cls-5" d="M804.83,499.69v-67.5h7.68l43.34,55.45h-4V432.19h9.36v67.5h-7.67l-43.34-55.45h4v55.45Z" transform="translate(-31.93 -352.15)"/><path class="cls-5" d="M880.84,499.69v-67.5h9.36v67.5Z" transform="translate(-31.93 -352.15)"/><path class="cls-5" d="M922.87,499.69V440.58H900.4v-8.39h54.2v8.39H932.14v59.11Z" transform="translate(-31.93 -352.15)"/><path class="cls-5" d="M993.17,500.46a36.57,36.57,0,0,1-13.81-2.55,32.35,32.35,0,0,1-11-7.24,33.77,33.77,0,0,1-7.25-10.94,37.47,37.47,0,0,1,0-27.58,33.58,33.58,0,0,1,7.3-10.95,32.59,32.59,0,0,1,11-7.23,38.32,38.32,0,0,1,27.8.1,28.48,28.48,0,0,1,10.9,7.86l-6.08,6.07a24.41,24.41,0,0,0-8.43-6,25.61,25.61,0,0,0-10-2,26.76,26.76,0,0,0-10.25,1.93,24.22,24.22,0,0,0-13.58,13.64,29.11,29.11,0,0,0,0,20.74A24.22,24.22,0,0,0,983.39,490a26.76,26.76,0,0,0,10.25,1.93,25.43,25.43,0,0,0,10-2,23.8,23.8,0,0,0,8.43-6.12l6.08,6.07a29,29,0,0,1-10.9,7.91A36,36,0,0,1,993.17,500.46Z" transform="translate(-31.93 -352.15)"/><path class="cls-5" d="M353.33,543.33v-28.7h4.39l18,22.14h-2.17V514.63h5.24v28.7h-4.38l-18-22.14h2.17v22.14Z" transform="translate(-31.93 -352.15)"/><path class="cls-5" d="M392.41,543.62a10.33,10.33,0,0,1-4.31-.84,6.64,6.64,0,0,1-2.85-2.34,5.94,5.94,0,0,1-1-3.38,6.32,6.32,0,0,1,.88-3.32A5.9,5.9,0,0,1,388,531.4a13.8,13.8,0,0,1,5.33-.86h6.35v3.4h-6q-2.58,0-3.51.84a2.76,2.76,0,0,0-.92,2.11,2.59,2.59,0,0,0,1.11,2.18,5.09,5.09,0,0,0,3.07.82,6.66,6.66,0,0,0,3.38-.86,5.15,5.15,0,0,0,2.2-2.55l.82,3.08a5.71,5.71,0,0,1-2.63,3A9.73,9.73,0,0,1,392.41,543.62Zm6.88-.29v-4.47l-.24-.9v-7.75a4.51,4.51,0,0,0-1.38-3.51,6,6,0,0,0-4.16-1.25A11.49,11.49,0,0,0,390,526a9.26,9.26,0,0,0-3,1.6l-2-3.73a12.62,12.62,0,0,1,4.23-2,17.89,17.89,0,0,1,5-.7c3.2,0,5.66.76,7.38,2.3s2.58,3.88,2.58,7v12.83Z" transform="translate(-31.93 -352.15)"/><path class="cls-5" d="M407.53,525.7v-4.1h14.6v4.1Zm11.16,17.92a7.76,7.76,0,0,1-5.58-1.87,7.19,7.19,0,0,1-2-5.47V516.6h5.09v19.51a3.35,3.35,0,0,0,.82,2.42,3,3,0,0,0,2.29.86,4.29,4.29,0,0,0,2.79-.9l1.48,3.65a6.54,6.54,0,0,1-2.26,1.11A10,10,0,0,1,418.69,543.62Z" transform="translate(-31.93 -352.15)"/><path class="cls-5" d="M430.17,517.83a3.23,3.23,0,0,1-2.36-.9,3,3,0,0,1-.92-2.22,2.86,2.86,0,0,1,.92-2.13,3.23,3.23,0,0,1,2.36-.9,3.35,3.35,0,0,1,2.35.84,2.77,2.77,0,0,1,.93,2.15,3.06,3.06,0,0,1-.91,2.24A3.18,3.18,0,0,1,430.17,517.83Zm-2.55,25.5V521.44h5.09v21.89Z" transform="translate(-31.93 -352.15)"/><path class="cls-5" d="M449,543.62a12.16,12.16,0,0,1-6-1.46,10.81,10.81,0,0,1-4.16-4A11.14,11.14,0,0,1,443,522.6a12.13,12.13,0,0,1,6-1.45,12.32,12.32,0,0,1,6,1.45,10.74,10.74,0,0,1,4.14,4,12,12,0,0,1,0,11.62,10.56,10.56,0,0,1-4.16,4A12.33,12.33,0,0,1,449,543.62Zm0-4.35a6.7,6.7,0,0,0,3.36-.84A5.93,5.93,0,0,0,454.7,536a7.6,7.6,0,0,0,.84-3.63,7.49,7.49,0,0,0-.84-3.63,6,6,0,0,0-2.31-2.37,7,7,0,0,0-6.64,0,6.06,6.06,0,0,0-2.34,2.37,7.27,7.27,0,0,0-.86,3.63,7.38,7.38,0,0,0,.86,3.63,6,6,0,0,0,2.34,2.42A6.48,6.48,0,0,0,449,539.27Z" transform="translate(-31.93 -352.15)"/><path class="cls-5" d="M477.81,521.15a10.31,10.31,0,0,1,4.69,1,7.76,7.76,0,0,1,3.24,3.16,10.91,10.91,0,0,1,1.21,5.45v12.55h-5.12V531.44a6.16,6.16,0,0,0-1.36-4.35,5.06,5.06,0,0,0-3.85-1.43,6.77,6.77,0,0,0-3.2.74,5,5,0,0,0-2.15,2.19,7.83,7.83,0,0,0-.76,3.67v11.07h-5.09V521.44h4.88v5.94l-.86-1.84a7.6,7.6,0,0,1,3.3-3.24A10.74,10.74,0,0,1,477.81,521.15Z" transform="translate(-31.93 -352.15)"/><path class="cls-5" d="M499.82,543.62a10.28,10.28,0,0,1-4.3-.84,6.64,6.64,0,0,1-2.85-2.34,5.94,5.94,0,0,1-1-3.38,6.32,6.32,0,0,1,.88-3.32,5.86,5.86,0,0,1,2.89-2.34,13.8,13.8,0,0,1,5.33-.86h6.35v3.4h-6c-1.73,0-2.89.28-3.51.84a2.76,2.76,0,0,0-.92,2.11,2.61,2.61,0,0,0,1.1,2.18,5.15,5.15,0,0,0,3.08.82,6.69,6.69,0,0,0,3.38-.86,5.15,5.15,0,0,0,2.2-2.55l.82,3.08a5.76,5.76,0,0,1-2.63,3A9.77,9.77,0,0,1,499.82,543.62Zm6.89-.29v-4.47l-.24-.9v-7.75a4.51,4.51,0,0,0-1.38-3.51,6,6,0,0,0-4.16-1.25,11.6,11.6,0,0,0-3.57.58,9.31,9.31,0,0,0-3,1.6l-2-3.73a12.67,12.67,0,0,1,4.22-2,18,18,0,0,1,5-.7c3.19,0,5.65.76,7.38,2.3s2.58,3.88,2.58,7v12.83Z" transform="translate(-31.93 -352.15)"/><path class="cls-5" d="M517.9,543.33V512.91H523v30.42Z" transform="translate(-31.93 -352.15)"/><path class="cls-5" d="M541,543.33v-28.7h5.33v28.7Z" transform="translate(-31.93 -352.15)"/><path class="cls-5" d="M565.79,521.15a10.36,10.36,0,0,1,4.7,1,7.68,7.68,0,0,1,3.23,3.16,10.91,10.91,0,0,1,1.21,5.45v12.55h-5.12V531.44a6.16,6.16,0,0,0-1.35-4.35,5.09,5.09,0,0,0-3.86-1.43,6.77,6.77,0,0,0-3.2.74,5.06,5.06,0,0,0-2.15,2.19,8,8,0,0,0-.76,3.67v11.07h-5.08V521.44h4.88v5.94l-.86-1.84a7.54,7.54,0,0,1,3.3-3.24A10.7,10.7,0,0,1,565.79,521.15Z" transform="translate(-31.93 -352.15)"/><path class="cls-5" d="M588,543.62a19,19,0,0,1-5.29-.72,14.37,14.37,0,0,1-4-1.74l2-3.9a13.66,13.66,0,0,0,3.53,1.54,14.69,14.69,0,0,0,4.14.59,7.23,7.23,0,0,0,3.47-.63,2,2,0,0,0,1.08-1.74,1.53,1.53,0,0,0-.74-1.38,5.71,5.71,0,0,0-1.92-.71c-.8-.17-1.68-.32-2.65-.46s-1.94-.32-2.91-.55a9.93,9.93,0,0,1-2.64-1,5.46,5.46,0,0,1-1.93-1.83,5.62,5.62,0,0,1-.74-3.07,5.7,5.7,0,0,1,1.19-3.59,7.67,7.67,0,0,1,3.34-2.4,13.84,13.84,0,0,1,5.11-.86,20.33,20.33,0,0,1,4.45.51,13.05,13.05,0,0,1,3.79,1.42l-2,3.89a10.36,10.36,0,0,0-3.12-1.25,14.9,14.9,0,0,0-3.15-.35,7,7,0,0,0-3.45.68,2,2,0,0,0-1.15,1.74,1.67,1.67,0,0,0,.74,1.48A5.76,5.76,0,0,0,587,530c.79.17,1.67.34,2.64.49s1.94.34,2.89.57a11.16,11.16,0,0,1,2.65,1,5.13,5.13,0,0,1,1.95,1.78,5.45,5.45,0,0,1,.73,3,5.51,5.51,0,0,1-1.21,3.59,7.83,7.83,0,0,1-3.4,2.34A14.75,14.75,0,0,1,588,543.62Z" transform="translate(-31.93 -352.15)"/><path class="cls-5" d="M599.17,525.7v-4.1h14.59v4.1Zm11.15,17.92a7.76,7.76,0,0,1-5.58-1.87,7.19,7.19,0,0,1-2-5.47V516.6h5.09v19.51a3.35,3.35,0,0,0,.82,2.42,3,3,0,0,0,2.29.86,4.29,4.29,0,0,0,2.79-.9l1.48,3.65a6.54,6.54,0,0,1-2.26,1.11A10,10,0,0,1,610.32,543.62Z" transform="translate(-31.93 -352.15)"/><path class="cls-5" d="M621.8,517.83a3.23,3.23,0,0,1-2.36-.9,3,3,0,0,1-.92-2.22,2.86,2.86,0,0,1,.92-2.13,3.23,3.23,0,0,1,2.36-.9,3.35,3.35,0,0,1,2.35.84,2.77,2.77,0,0,1,.93,2.15,3.06,3.06,0,0,1-.91,2.24A3.18,3.18,0,0,1,621.8,517.83Zm-2.55,25.5V521.44h5.09v21.89Z" transform="translate(-31.93 -352.15)"/><path class="cls-5" d="M627.91,525.7v-4.1H642.5v4.1Zm11.15,17.92a7.76,7.76,0,0,1-5.58-1.87,7.19,7.19,0,0,1-2-5.47V516.6h5.09v19.51a3.35,3.35,0,0,0,.82,2.42,3,3,0,0,0,2.29.86,4.29,4.29,0,0,0,2.79-.9l1.48,3.65a6.54,6.54,0,0,1-2.26,1.11A10,10,0,0,1,639.06,543.62Z" transform="translate(-31.93 -352.15)"/><path class="cls-5" d="M657.22,543.62a11,11,0,0,1-4.92-1,7.53,7.53,0,0,1-3.34-3.2,10.91,10.91,0,0,1-1.21-5.43v-12.5h5.17v11.85a6.2,6.2,0,0,0,1.35,4.36,4.9,4.9,0,0,0,3.77,1.46,6.56,6.56,0,0,0,3.16-.74,5,5,0,0,0,2.09-2.21,8.16,8.16,0,0,0,.74-3.65V521.44h5.12v21.89h-4.88v-5.94l.86,1.84a7.79,7.79,0,0,1-3.24,3.24A9.76,9.76,0,0,1,657.22,543.62Z" transform="translate(-31.93 -352.15)"/><path class="cls-5" d="M672.72,525.7v-4.1h14.59v4.1Zm11.15,17.92a7.78,7.78,0,0,1-5.58-1.87,7.19,7.19,0,0,1-2-5.47V516.6h5.08v19.51a3.35,3.35,0,0,0,.82,2.42,3,3,0,0,0,2.3.86,4.24,4.24,0,0,0,2.78-.9l1.48,3.65a6.54,6.54,0,0,1-2.26,1.11A10,10,0,0,1,683.87,543.62Z" transform="translate(-31.93 -352.15)"/><path class="cls-5" d="M702.32,543.62a13.38,13.38,0,0,1-6.38-1.46,10.59,10.59,0,0,1-4.22-4,11.11,11.11,0,0,1-1.5-5.8,11.41,11.41,0,0,1,1.46-5.8,10.67,10.67,0,0,1,4-4,11.61,11.61,0,0,1,5.84-1.45,11.42,11.42,0,0,1,5.7,1.41,10.34,10.34,0,0,1,3.94,4,12.14,12.14,0,0,1,1.43,6c0,.19,0,.43,0,.71a7.58,7.58,0,0,1-.06.76H694.28v-3.4h15.54l-2.05,1.07a6.34,6.34,0,0,0-.76-3.3,5.67,5.67,0,0,0-2.19-2.26,6.51,6.51,0,0,0-3.28-.8,6.77,6.77,0,0,0-3.3.8,5.39,5.39,0,0,0-2.23,2.28,7.14,7.14,0,0,0-.78,3.4v.82a6.77,6.77,0,0,0,.88,3.48,6,6,0,0,0,2.52,2.36,8.23,8.23,0,0,0,3.81.84,8.54,8.54,0,0,0,3.32-.61,7.7,7.7,0,0,0,2.63-1.81l2.79,3.2a9.86,9.86,0,0,1-3.76,2.62A13.37,13.37,0,0,1,702.32,543.62Z" transform="translate(-31.93 -352.15)"/><path class="cls-5" d="M738.19,543.62a12.15,12.15,0,0,1-6-1.46,10.81,10.81,0,0,1-4.16-4,11.14,11.14,0,0,1,4.14-15.56,12.12,12.12,0,0,1,6-1.45,12.33,12.33,0,0,1,6,1.45,10.88,10.88,0,0,1,4.14,4,12,12,0,0,1,0,11.62,10.63,10.63,0,0,1-4.16,4A12.37,12.37,0,0,1,738.19,543.62Zm0-4.35a6.72,6.72,0,0,0,3.37-.84,5.93,5.93,0,0,0,2.31-2.42,7.6,7.6,0,0,0,.84-3.63,7.49,7.49,0,0,0-.84-3.63,6,6,0,0,0-2.31-2.37,7,7,0,0,0-6.65,0,6.1,6.1,0,0,0-2.33,2.37,7.27,7.27,0,0,0-.86,3.63,7.38,7.38,0,0,0,.86,3.63,6,6,0,0,0,2.33,2.42A6.54,6.54,0,0,0,738.19,539.27Z" transform="translate(-31.93 -352.15)"/><path class="cls-5" d="M751.64,525.7v-4.1h14.6v4.1Zm3.61,17.63V520.25a7.61,7.61,0,0,1,2-5.56,7.76,7.76,0,0,1,5.8-2.07,11.09,11.09,0,0,1,2.56.29,5.34,5.34,0,0,1,2,.9l-1.43,3.81A5.17,5.17,0,0,0,765,517a4.61,4.61,0,0,0-1.52-.25,3.17,3.17,0,0,0-2.42.88,3.7,3.7,0,0,0-.82,2.61v2.54l.12,2.25v18.29Z" transform="translate(-31.93 -352.15)"/><path class="cls-5" d="M786.82,543.33V519.14h-9.51v-4.51h24.35v4.51h-9.51v24.19Z" transform="translate(-31.93 -352.15)"/><path class="cls-5" d="M813,543.62a13.35,13.35,0,0,1-6.38-1.46,10.53,10.53,0,0,1-4.22-4,11.11,11.11,0,0,1-1.5-5.8,11.41,11.41,0,0,1,1.46-5.8,10.67,10.67,0,0,1,4-4,11.58,11.58,0,0,1,5.84-1.45,11.42,11.42,0,0,1,5.7,1.41,10.31,10.31,0,0,1,3.93,4,12,12,0,0,1,1.44,6c0,.19,0,.43,0,.71s0,.54-.06.76H804.94v-3.4h15.54l-2.05,1.07a6.34,6.34,0,0,0-.76-3.3,5.67,5.67,0,0,0-2.19-2.26,6.51,6.51,0,0,0-3.28-.8,6.77,6.77,0,0,0-3.3.8,5.41,5.41,0,0,0-2.24,2.28,7.14,7.14,0,0,0-.78,3.4v.82a6.77,6.77,0,0,0,.89,3.48,5.88,5.88,0,0,0,2.52,2.36,8.23,8.23,0,0,0,3.81.84,8.54,8.54,0,0,0,3.32-.61,7.57,7.57,0,0,0,2.62-1.81l2.79,3.2a9.75,9.75,0,0,1-3.75,2.62A13.37,13.37,0,0,1,813,543.62Z" transform="translate(-31.93 -352.15)"/><path class="cls-5" d="M838,543.62a12.65,12.65,0,0,1-6.13-1.46,10.73,10.73,0,0,1-4.2-4,11.09,11.09,0,0,1,4.2-15.58,12.65,12.65,0,0,1,6.13-1.45,11.79,11.79,0,0,1,5.61,1.31,8.5,8.5,0,0,1,3.69,3.81l-3.89,2.3a6.68,6.68,0,0,0-2.4-2.28,6.4,6.4,0,0,0-3-.75,6.92,6.92,0,0,0-3.41.84,6,6,0,0,0-2.37,2.37,7.28,7.28,0,0,0-.87,3.63,7.35,7.35,0,0,0,.87,3.65,6,6,0,0,0,2.37,2.4,6.92,6.92,0,0,0,3.41.84,6.3,6.3,0,0,0,3-.76,6.44,6.44,0,0,0,2.4-2.31l3.89,2.29a8.55,8.55,0,0,1-3.69,3.79A11.57,11.57,0,0,1,838,543.62Z" transform="translate(-31.93 -352.15)"/><path class="cls-5" d="M863.74,521.15a10.31,10.31,0,0,1,4.69,1,7.76,7.76,0,0,1,3.24,3.16,11,11,0,0,1,1.21,5.45v12.55h-5.13V531.44a6.16,6.16,0,0,0-1.35-4.35,5.06,5.06,0,0,0-3.85-1.43,6.75,6.75,0,0,0-3.2.74,5,5,0,0,0-2.15,2.19,7.83,7.83,0,0,0-.76,3.67v11.07h-5.09V512.91h5.09v14.47l-1.07-1.84a7.6,7.6,0,0,1,3.3-3.24A10.71,10.71,0,0,1,863.74,521.15Z" transform="translate(-31.93 -352.15)"/><path class="cls-5" d="M891.57,521.15a10.33,10.33,0,0,1,4.7,1,7.76,7.76,0,0,1,3.24,3.16,11,11,0,0,1,1.21,5.45v12.55h-5.13V531.44a6.16,6.16,0,0,0-1.35-4.35,5.07,5.07,0,0,0-3.86-1.43,6.73,6.73,0,0,0-3.19.74,5.08,5.08,0,0,0-2.16,2.19,8,8,0,0,0-.75,3.67v11.07h-5.09V521.44h4.88v5.94l-.86-1.84a7.6,7.6,0,0,1,3.3-3.24A10.7,10.7,0,0,1,891.57,521.15Z" transform="translate(-31.93 -352.15)"/><path class="cls-5" d="M916.87,543.62a12.22,12.22,0,0,1-6-1.46,10.81,10.81,0,0,1-4.16-4,11.14,11.14,0,0,1,4.14-15.56,12.15,12.15,0,0,1,6-1.45,12.36,12.36,0,0,1,6,1.45,10.88,10.88,0,0,1,4.14,4,12.07,12.07,0,0,1,0,11.62,10.69,10.69,0,0,1-4.16,4A12.4,12.4,0,0,1,916.87,543.62Zm0-4.35a6.65,6.65,0,0,0,3.36-.84,5.89,5.89,0,0,0,2.32-2.42,7.6,7.6,0,0,0,.84-3.63,7.49,7.49,0,0,0-.84-3.63,6,6,0,0,0-2.32-2.37,7,7,0,0,0-6.64,0,6.2,6.2,0,0,0-2.34,2.37,7.38,7.38,0,0,0-.86,3.63,7.49,7.49,0,0,0,.86,3.63,6.13,6.13,0,0,0,2.34,2.42A6.51,6.51,0,0,0,916.87,539.27Z" transform="translate(-31.93 -352.15)"/><path class="cls-5" d="M933.27,543.33V512.91h5.08v30.42Z" transform="translate(-31.93 -352.15)"/><path class="cls-5" d="M954.67,543.62a12.15,12.15,0,0,1-6-1.46,10.84,10.84,0,0,1-4.17-4,11.13,11.13,0,0,1,4.15-15.56,12.09,12.09,0,0,1,6-1.45,12.33,12.33,0,0,1,6.05,1.45,10.88,10.88,0,0,1,4.14,4,12,12,0,0,1,0,11.62,10.63,10.63,0,0,1-4.16,4A12.4,12.4,0,0,1,954.67,543.62Zm0-4.35a6.65,6.65,0,0,0,3.36-.84,5.89,5.89,0,0,0,2.32-2.42,7.6,7.6,0,0,0,.84-3.63,7.49,7.49,0,0,0-.84-3.63,6,6,0,0,0-2.32-2.37,7,7,0,0,0-6.64,0,6.2,6.2,0,0,0-2.34,2.37,7.38,7.38,0,0,0-.86,3.63,7.49,7.49,0,0,0,.86,3.63,6.13,6.13,0,0,0,2.34,2.42A6.54,6.54,0,0,0,954.67,539.27Z" transform="translate(-31.93 -352.15)"/><path class="cls-5" d="M980.3,542.35a11.8,11.8,0,0,1-5.66-1.34,10,10,0,0,1-4-3.71,10.37,10.37,0,0,1-1.45-5.53,10.59,10.59,0,0,1,1.45-5.6,10,10,0,0,1,4-3.71,12,12,0,0,1,5.66-1.31,10.9,10.9,0,0,1,5,1.13,8.33,8.33,0,0,1,3.55,3.46,12.3,12.3,0,0,1,1.31,6,12.06,12.06,0,0,1-1.31,5.94,8.52,8.52,0,0,1-3.55,3.49A10.91,10.91,0,0,1,980.3,542.35Zm.65,9.22a21.91,21.91,0,0,1-5.92-.8,12.71,12.71,0,0,1-4.74-2.36l2.3-3.81a11.23,11.23,0,0,0,3.61,1.93,13.94,13.94,0,0,0,4.51.74c2.37,0,4.12-.56,5.24-1.66a6.8,6.8,0,0,0,1.68-5v-3.89l.41-4.92-.16-5v-5.37h4.88V540q0,5.94-3,8.75C987.7,550.63,984.78,551.57,981,551.57Zm.13-13.57a7.3,7.3,0,0,0,3.44-.8,5.86,5.86,0,0,0,2.36-2.21,6.71,6.71,0,0,0,0-6.5,5.79,5.79,0,0,0-2.36-2.18,7.54,7.54,0,0,0-3.44-.77,7.7,7.7,0,0,0-3.47.77,5.78,5.78,0,0,0-2.38,2.18,6.71,6.71,0,0,0,0,6.5,5.85,5.85,0,0,0,2.38,2.21A7.46,7.46,0,0,0,981.08,538Z" transform="translate(-31.93 -352.15)"/><path class="cls-5" d="M1001.08,551.57a10.37,10.37,0,0,1-3.24-.53,7.21,7.21,0,0,1-2.62-1.48l2-3.73A7,7,0,0,0,999,546.9a5.19,5.19,0,0,0,2,.41,3.48,3.48,0,0,0,2.25-.7,6.25,6.25,0,0,0,1.6-2.38l1.23-2.79.5-.65,8.24-19.35h4.92l-10.25,23.69a14.36,14.36,0,0,1-2.28,3.84,7.2,7.2,0,0,1-2.79,2A9.3,9.3,0,0,1,1001.08,551.57Zm4.47-7.46-9.88-22.67H1001l8.08,18.9Z" transform="translate(-31.93 -352.15)"/><path class="cls-5" d="M366.62,586.74a16.56,16.56,0,0,1-6.11-1.09,14.33,14.33,0,0,1-8.08-7.77,15.71,15.71,0,0,1,0-11.8,14.4,14.4,0,0,1,8.12-7.77,17.68,17.68,0,0,1,12.54.12A12.68,12.68,0,0,1,378,562l-3.44,3.24a10.88,10.88,0,0,0-3.53-2.53,10.21,10.21,0,0,0-4.14-.84,11.18,11.18,0,0,0-4.12.74,9.66,9.66,0,0,0-3.24,2.09,9.85,9.85,0,0,0-2.15,3.2,11,11,0,0,0,0,8.12,10,10,0,0,0,2.15,3.2,9.66,9.66,0,0,0,3.24,2.09,11.18,11.18,0,0,0,4.12.74,10.21,10.21,0,0,0,4.14-.84,10.58,10.58,0,0,0,3.53-2.57L378,581.9a12.83,12.83,0,0,1-4.92,3.61A16.47,16.47,0,0,1,366.62,586.74Z" transform="translate(-31.93 -352.15)"/><path class="cls-5" d="M388.8,586.62a10.33,10.33,0,0,1-4.31-.84,6.64,6.64,0,0,1-2.85-2.34,5.94,5.94,0,0,1-1-3.38,6.32,6.32,0,0,1,.88-3.32,5.9,5.9,0,0,1,2.89-2.34,13.83,13.83,0,0,1,5.33-.86h6.36v3.4h-6q-2.58,0-3.51.84a2.76,2.76,0,0,0-.92,2.11,2.59,2.59,0,0,0,1.11,2.18,5.11,5.11,0,0,0,3.07.82,6.73,6.73,0,0,0,3.39-.86,5.19,5.19,0,0,0,2.19-2.55l.82,3.08a5.74,5.74,0,0,1-2.62,3A9.77,9.77,0,0,1,388.8,586.62Zm6.89-.29v-4.47l-.25-.9v-7.75a4.54,4.54,0,0,0-1.37-3.51,6.06,6.06,0,0,0-4.17-1.25,11.49,11.49,0,0,0-3.56.58,9.26,9.26,0,0,0-3,1.6l-2-3.73a12.72,12.72,0,0,1,4.23-2,17.89,17.89,0,0,1,5-.7q4.8,0,7.38,2.3t2.58,7v12.83Z" transform="translate(-31.93 -352.15)"/><path class="cls-5" d="M406.88,586.33V555.91H412v30.42Z" transform="translate(-31.93 -352.15)"/><path class="cls-5" d="M421,560.83a3.22,3.22,0,0,1-2.35-.9,3,3,0,0,1-.93-2.22,2.87,2.87,0,0,1,.93-2.13,3.22,3.22,0,0,1,2.35-.9,3.36,3.36,0,0,1,2.36.84,2.76,2.76,0,0,1,.92,2.15,3.09,3.09,0,0,1-.9,2.24A3.19,3.19,0,0,1,421,560.83Zm-2.54,25.5V564.44h5.08v21.89Z" transform="translate(-31.93 -352.15)"/><path class="cls-5" d="M440.09,586.62a12.65,12.65,0,0,1-6.13-1.46,10.73,10.73,0,0,1-4.2-4A11.09,11.09,0,0,1,434,565.6a12.65,12.65,0,0,1,6.13-1.45,11.79,11.79,0,0,1,5.61,1.31,8.5,8.5,0,0,1,3.69,3.81l-3.89,2.3a6.68,6.68,0,0,0-2.4-2.28,6.4,6.4,0,0,0-3.05-.75,6.92,6.92,0,0,0-3.41.84,6,6,0,0,0-2.37,2.37,7.28,7.28,0,0,0-.87,3.63,7.35,7.35,0,0,0,.87,3.65,6,6,0,0,0,2.37,2.4,6.92,6.92,0,0,0,3.41.84,6.3,6.3,0,0,0,3.05-.76,6.44,6.44,0,0,0,2.4-2.31l3.89,2.29a8.55,8.55,0,0,1-3.69,3.79A11.57,11.57,0,0,1,440.09,586.62Z" transform="translate(-31.93 -352.15)"/><path class="cls-5" d="M462.88,586.62a11,11,0,0,1-4.92-1,7.58,7.58,0,0,1-3.34-3.2,10.91,10.91,0,0,1-1.21-5.43v-12.5h5.17v11.85a6.2,6.2,0,0,0,1.35,4.36,4.9,4.9,0,0,0,3.77,1.46,6.5,6.5,0,0,0,3.16-.74,5,5,0,0,0,2.09-2.21,8.16,8.16,0,0,0,.74-3.65V564.44h5.12v21.89h-4.87v-6l.86,1.85a7.79,7.79,0,0,1-3.24,3.24A9.77,9.77,0,0,1,462.88,586.62Z" transform="translate(-31.93 -352.15)"/><path class="cls-5" d="M478.38,568.7v-4.1H493v4.1Zm11.15,17.92a7.75,7.75,0,0,1-5.57-1.87,7.19,7.19,0,0,1-2-5.47V559.6h5.08v19.51a3.39,3.39,0,0,0,.82,2.42,3,3,0,0,0,2.3.86,4.29,4.29,0,0,0,2.79-.9l1.47,3.65a6.58,6.58,0,0,1-2.25,1.11A10.06,10.06,0,0,1,489.53,586.62Z" transform="translate(-31.93 -352.15)"/><path class="cls-5" d="M497.49,592.56l2.33-9.14.78,3.07a3.48,3.48,0,0,1-2.44-.88,3.13,3.13,0,0,1-1-2.44,3.24,3.24,0,0,1,1-2.44,3.32,3.32,0,0,1,2.36-.92,3.26,3.26,0,0,1,2.4.94,3.34,3.34,0,0,1,.92,2.42,6,6,0,0,1-.08.93,8.08,8.08,0,0,1-.29,1.08c-.13.41-.33.93-.57,1.56l-2.13,5.82Z" transform="translate(-31.93 -352.15)"/><path class="cls-5" d="M520.16,586.33v-28.7h5.33v28.7Zm4.71-6.76-.24-6.32,15-15.62h6l-12.5,13.28-3,3.24Zm15.3,6.76-11-13.08,3.56-3.89,13.74,17Z" transform="translate(-31.93 -352.15)"/><path class="cls-5" d="M558.66,586.62a13.35,13.35,0,0,1-6.38-1.46,10.53,10.53,0,0,1-4.22-4,11.11,11.11,0,0,1-1.5-5.8,11.41,11.41,0,0,1,1.46-5.8,10.67,10.67,0,0,1,4-4,11.58,11.58,0,0,1,5.84-1.45,11.42,11.42,0,0,1,5.7,1.41,10.31,10.31,0,0,1,3.93,4,12,12,0,0,1,1.44,6c0,.19,0,.43,0,.71s0,.54-.06.76H550.62v-3.4h15.54l-2,1.07a6.44,6.44,0,0,0-.76-3.3,5.67,5.67,0,0,0-2.19-2.26,6.53,6.53,0,0,0-3.28-.8,6.77,6.77,0,0,0-3.3.8,5.41,5.41,0,0,0-2.24,2.28,7.14,7.14,0,0,0-.78,3.4v.82a6.77,6.77,0,0,0,.89,3.48,5.88,5.88,0,0,0,2.52,2.36,8.23,8.23,0,0,0,3.81.84,8.54,8.54,0,0,0,3.32-.61,7.66,7.66,0,0,0,2.62-1.81l2.79,3.2a9.75,9.75,0,0,1-3.75,2.62A13.37,13.37,0,0,1,558.66,586.62Z" transform="translate(-31.93 -352.15)"/><path class="cls-5" d="M573.66,586.33V564.44h4.88v6L578,568.7a6.78,6.78,0,0,1,3.07-3.38,10.7,10.7,0,0,1,5.21-1.17V569l-.57-.06a5.15,5.15,0,0,0-.54,0,6.4,6.4,0,0,0-4.67,1.68,6.86,6.86,0,0,0-1.72,5.12v10.58Z" transform="translate(-31.93 -352.15)"/><path class="cls-5" d="M595.43,586.62a10.28,10.28,0,0,1-4.3-.84,6.64,6.64,0,0,1-2.85-2.34,6,6,0,0,1-1-3.38,6.32,6.32,0,0,1,.89-3.32,5.86,5.86,0,0,1,2.89-2.34,13.8,13.8,0,0,1,5.33-.86h6.35v3.4h-6c-1.73,0-2.89.28-3.51.84a2.72,2.72,0,0,0-.92,2.11,2.61,2.61,0,0,0,1.1,2.18,5.15,5.15,0,0,0,3.08.82,6.69,6.69,0,0,0,3.38-.86,5.15,5.15,0,0,0,2.2-2.55l.82,3.08a5.76,5.76,0,0,1-2.63,3A9.77,9.77,0,0,1,595.43,586.62Zm6.89-.29v-4.47l-.24-.9v-7.75a4.51,4.51,0,0,0-1.38-3.51,6,6,0,0,0-4.16-1.25A11.6,11.6,0,0,0,593,569a9.31,9.31,0,0,0-3,1.6l-2-3.73a12.67,12.67,0,0,1,4.22-2,18,18,0,0,1,5.05-.7q4.78,0,7.38,2.3t2.58,7v12.83Z" transform="translate(-31.93 -352.15)"/><path class="cls-5" d="M613.51,586.33V555.91h5.09v30.42Z" transform="translate(-31.93 -352.15)"/><path class="cls-5" d="M631.68,586.62a10.33,10.33,0,0,1-4.31-.84,6.64,6.64,0,0,1-2.85-2.34,5.94,5.94,0,0,1-1-3.38,6.32,6.32,0,0,1,.88-3.32,5.9,5.9,0,0,1,2.89-2.34,13.83,13.83,0,0,1,5.33-.86H639v3.4h-6q-2.58,0-3.51.84a2.76,2.76,0,0,0-.92,2.11,2.59,2.59,0,0,0,1.11,2.18,5.11,5.11,0,0,0,3.07.82,6.66,6.66,0,0,0,3.38-.86,5.15,5.15,0,0,0,2.2-2.55l.82,3.08a5.71,5.71,0,0,1-2.63,3A9.73,9.73,0,0,1,631.68,586.62Zm6.88-.29v-4.47l-.24-.9v-7.75A4.54,4.54,0,0,0,637,569.7a6.06,6.06,0,0,0-4.17-1.25,11.49,11.49,0,0,0-3.56.58,9.26,9.26,0,0,0-3,1.6l-2-3.73a12.72,12.72,0,0,1,4.23-2,17.89,17.89,0,0,1,5-.7q4.8,0,7.38,2.3t2.58,7v12.83Z" transform="translate(-31.93 -352.15)"/></svg>